<svg viewBox="0 0 47 40" xmlns="http://www.w3.org/2000/svg" fill-rule="evenodd" clip-rule="evenodd" stroke-linejoin="round" stroke-miterlimit="2">
  <path fill="#7e543b" fill-rule="nonzero" d="M7.21 16.164h31.98v20.639H7.21z"/>
  <path d="M15.835 25.453l-6.217 3.381 1.891 3.478 6.217-3.382-1.891-3.477z" fill="#3bb54a"/>
  <path d="M15.835 25.453l-6.217 3.381 1.891 3.478 6.217-3.382-1.891-3.477zm-.109.368l1.632 3-5.74 3.122-1.632-3 5.74-3.122z" fill="#0e9347"/>
  <path d="M12.954 27.562a1.504 1.504 0 011.436 2.64 1.504 1.504 0 01-1.436-2.64z" fill="#0e9347"/>
  <path d="M12.954 27.562a1.504 1.504 0 011.436 2.64 1.504 1.504 0 01-1.436-2.64zm.13.239a1.23 1.23 0 111.176 2.16 1.23 1.23 0 01-1.176-2.16z" fill="#f6b545"/>
  <path d="M9.419 16.917l-6.545-.956-.534 3.661 6.545.956.534-3.661z" fill="#3bb54a"/>
  <path d="M9.419 16.917l-6.545-.956-.534 3.661 6.545.956.534-3.661zm-.308.23l-.456 3.123-6.007-.878.456-3.122 6.007.877z" fill="#0e9347"/>
  <path d="M6.083 16.88a1.404 1.404 0 11-.406 2.78 1.404 1.404 0 01.406-2.78z" fill="#0e9347"/>
  <path d="M6.083 16.88a1.404 1.404 0 11-.406 2.78 1.404 1.404 0 01.406-2.78zm-.04.269a1.133 1.133 0 11-.33 2.243 1.133 1.133 0 01.33-2.243z" fill="#f6b545"/>
  <path d="M9.238 20l-7.052.6.335 3.945 7.052-.601L9.238 20z" fill="#3bb54a"/>
  <path d="M9.238 20l-7.052.6.335 3.945 7.052-.601L9.238 20zm-.248.294l.289 3.403-6.51.554-.289-3.403 6.51-.554z" fill="#0e9347"/>
  <path d="M5.752 20.775a1.503 1.503 0 11.254 2.992 1.503 1.503 0 01-.254-2.992z" fill="#0e9347"/>
  <path d="M5.752 20.775a1.503 1.503 0 11.254 2.992 1.503 1.503 0 01-.254-2.992zm.023.271a1.231 1.231 0 11.208 2.454 1.231 1.231 0 01-.208-2.454z" fill="#f6b545"/>
  <path d="M8.599 22.627l-6.194 3.424 1.916 3.464 6.194-3.424-1.916-3.464z" fill="#3bb54a"/>
  <path d="M8.599 22.627l-6.194 3.424 1.916 3.464 6.194-3.424-1.916-3.464zm-.106.369l1.652 2.989-5.718 3.161-1.652-2.989 5.718-3.161z" fill="#0e9347"/>
  <path d="M5.733 24.756a1.503 1.503 0 111.454 2.632 1.503 1.503 0 01-1.454-2.632z" fill="#0e9347"/>
  <path d="M5.733 24.756a1.503 1.503 0 111.454 2.632 1.503 1.503 0 01-1.454-2.632zm.132.238a1.23 1.23 0 111.19 2.153 1.23 1.23 0 01-1.19-2.153z" fill="#f6b545"/>
  <path d="M42.079 16.775l-6.194 3.424 1.916 3.464 6.194-3.424-1.916-3.464z" fill="#3bb54a"/>
  <path d="M42.079 16.775l-6.194 3.424 1.916 3.464 6.194-3.424-1.916-3.464zm-.106.369l1.652 2.989-5.718 3.161-1.652-2.989 5.718-3.161z" fill="#0e9347"/>
  <path d="M39.213 18.904a1.503 1.503 0 111.454 2.632 1.503 1.503 0 01-1.454-2.632z" fill="#0e9347"/>
  <path d="M39.213 18.904a1.503 1.503 0 111.454 2.632 1.503 1.503 0 01-1.454-2.632zm.131.238a1.232 1.232 0 111.191 2.156 1.232 1.232 0 01-1.191-2.156z" fill="#f6b545"/>
  <g>
    <path d="M44.239 21.742l-7.062.466.26 3.95 7.062-.466-.26-3.95z" fill="#3bb54a"/>
    <path d="M44.239 21.742l-7.062.466.26 3.95 7.062-.466-.26-3.95zm-.254.289l.225 3.408-6.52.43-.224-3.408 6.519-.43z" fill="#0e9347"/>
    <path d="M40.739 22.451a1.502 1.502 0 11.198 2.998 1.502 1.502 0 01-.198-2.998z" fill="#0e9347"/>
    <path d="M40.739 22.451a1.502 1.502 0 11.198 2.998 1.502 1.502 0 01-.198-2.998zm.018.271a1.23 1.23 0 11.162 2.457 1.23 1.23 0 01-.162-2.457z" fill="#f6b545"/>
  </g>
  <g>
    <path d="M41.23 28.505l-6.099-3.589-2.008 3.411 6.1 3.59 2.007-3.412z" fill="#3bb54a"/>
    <path d="M41.23 28.505l-6.099-3.589-2.008 3.411 6.1 3.59 2.007-3.412zm-.372.097l-1.732 2.943-5.631-3.314 1.732-2.943 5.631 3.314z" fill="#0e9347"/>
    <path d="M37.939 27.121a1.504 1.504 0 01-1.524 2.59 1.502 1.502 0 111.524-2.59z" fill="#0e9347"/>
    <path d="M37.939 27.121a1.504 1.504 0 01-1.524 2.59 1.502 1.502 0 111.524-2.59zm-.138.235a1.23 1.23 0 11-1.248 2.12 1.23 1.23 0 011.248-2.12z" fill="#f6b545"/>
  </g>
  <path d="M7.21 16.164h31.98v8.443c0 1.801-1.743 3.284-3.86 3.284H11.621c-2.42 0-4.411-1.694-4.411-3.753v-7.974z" fill="#cc8355" fill-rule="nonzero"/>
  <g>
    <circle cx="23.2" cy="26.483" r="7.067" fill="#e9e9ea"/>
    <path d="M20.881 29.236a3.934 3.934 0 01-.927.107c-.783 0-1.118-.349-1.118-.866 0-.76.619-1.048 1.378-1.048.406 0 .727.097.83.13l.12-.834a4.413 4.413 0 00-1.206-.149c-1.22 0-2.301.606-2.301 1.901 0 1.006.647 1.77 1.975 1.77.484 0 .96-.094 1.123-.163l.126-.848zm1.425 1.034c1.155 0 2.165-.41 2.165-1.239 0-.494-.451-.759-1.006-.969l-.223-.084c-.433-.163-.61-.242-.61-.409 0-.168.214-.261.619-.261.485 0 .829.149 1.146.284l.144-.811a3.81 3.81 0 00-1.378-.233c-.964 0-1.798.406-1.798 1.114 0 .498.391.773.861.973l.21.089c.475.2.685.261.685.443 0 .176-.237.302-.764.302-.494 0-.853-.144-1.113-.28l-.126.876c.186.075.559.205 1.188.205zm3.926-3.633h-1.164l-.266 1.826c-.172 1.187.429 1.784 1.663 1.784 1.373 0 1.863-.713 2.017-1.794l.261-1.816H27.62l-.27 1.896c-.074.526-.312.87-.799.87-.483 0-.678-.284-.589-.903l.27-1.863z" fill="#008bc6" fill-rule="nonzero"/>
    <path d="M23.212 22.758h-1.88l-.508 3.548h1.977c1.395 0 2.038-.779 2.038-2.047 0-.97-.583-1.501-1.627-1.501zm-.336.76c.602 0 .821.279.821.802 0 .751-.345 1.207-1.073 1.207h-.569l.289-2.009h.532zM20.46 25.36a3.937 3.937 0 01-.928.107c-.783 0-1.119-.35-1.119-.867 0-.76.62-1.05 1.38-1.05.406 0 .728.098.83.131l.122-.835a4.436 4.436 0 00-1.208-.149c-1.222 0-2.304.606-2.304 1.903 0 1.007.649 1.772 1.977 1.772.485 0 .961-.094 1.124-.163l.126-.849zm6.193-2.602h-1.166l-.266 1.828c-.172 1.189.429 1.786 1.665 1.786 1.375 0 1.866-.714 2.019-1.796l.262-1.818h-1.124l-.271 1.898c-.074.527-.312.871-.8.871-.483 0-.678-.284-.589-.904l.27-1.865z" fill="#e2001a" fill-rule="nonzero"/>
  </g>
  <path d="M11.59 16.162a1.436 1.436 0 00-1.436-1.436h-.238a1.436 1.436 0 00-1.436 1.436v.002h3.11v-.002zM37.92 16.162a1.436 1.436 0 00-1.436-1.436h-.238a1.436 1.436 0 00-1.436 1.436v.002h3.11v-.002z" fill="#787680"/>
  <path fill="#787680" fill-rule="nonzero" d="M13.819 13.819h4.222v2.345h-4.222zM28.36 13.819h4.222v2.345H28.36z"/>
  <path d="M30.705 9.597h-15.01a.942.942 0 00-.938.938v3.284h2.814v-1.877h11.258v1.877h2.814v-3.284a.942.942 0 00-.938-.938z" fill="#e9e9ea" fill-rule="nonzero"/>
  <path d="M22.898 11.926c.074.48-.229.925-.677.994h-.002c-.448.069-.871-.264-.945-.744l-.068-.44c.074.48-.229.925-.677.994l-.019.002c-.447.07-.869-.262-.944-.741-.246-1.567-.267-1.721-.626-4.062-.201-1.314.63-2.533 1.857-2.722l2.634-.406c.806-.124 1.621.229 2.13.923l1.679 2.584c.406.625.309 1.45-.231 1.963l-.893.849.121.794c.074.48-.229.925-.677.994-.448.069-.871-.264-.945-.744l-.03-.194c.064.474-.237.908-.68.977l-.019.003c-.448.069-.871-.264-.945-.744l-.043-.28z" fill="#f7caa5" fill-rule="nonzero"/>
  <path d="M17.939 5.189c-.634-2.422.007-4.048.624-5.189h7.072c-.908.996-1.083 2.455-.784 3.38l.4 1.503-6.905 1.838-.4-1.503-.007-.029z" fill="#6e86b0"/>
  <clipPath id="a">
    <path d="M17.939 5.189c-.634-2.422.007-4.048.624-5.189h7.072c-.908.996-1.083 2.455-.784 3.38l.4 1.503-6.905 1.838-.4-1.503-.007-.029z"/>
  </clipPath>
  <g clip-path="url(#a)">
    <path d="M24.851 3.38l-6.905 1.838.4 1.503 6.905-1.838-.4-1.503z" fill="#4c638c"/>
    <circle cx="24.298" cy="4.302" r=".429" fill="#6e86b0"/>
  </g>
</svg>
